# File created by Blade
# Date/Time:  Tue Apr 07 21:25:43 2015
#---------------------------------------------------------
:version 1.10
:name HOM
:units
  mass 1.0
  length 1.000000
  angle deg
:documentation
     Acclaim Skeleton File
:root
   axis xyz
   order TX TY TZ RX RY RZ
   position 0.000000 0.000000 0.000000
   orientation 0 0 0
:bonedata
   begin
      id 1
      name Spine_dum
      direction 0.000000 1.000000 0.000000
      length 4.885285
      axis 0.0 0.0 0.0 xyz
   end
   begin
      id 2
      name LeftUpLeg_dum
      direction 1.000000 0.000000 0.000000
      length 2.672193
      axis 0.0 0.0 0.0 xyz
   end
   begin
      id 3
      name RightUpLeg_dum
      direction -1.000000 0.000000 0.000000
      length 2.672193
      axis 0.0 0.0 0.0 xyz
   end
   begin
      id 4
      name Spine
      direction 0.000000 1.000000 0.000000
      length 0.000000
      axis 0.0 0.0 0.0 xyz
      dof rx ry rz
   end
   begin
      id 5
      name Spine_dum1
      direction 0.000000 1.000000 0.000000
      length 16.494159
      axis 0.0 0.0 0.0 xyz
   end
   begin
      id 6
      name Spine_dum2
      direction 0.000000 1.000000 0.000000
      length 10.663448
      axis 0.0 0.0 0.0 xyz
   end
   begin
      id 7
      name Spine_dum3
      direction 0.000000 1.000000 0.000000
      length 10.663448
      axis 0.0 0.0 0.0 xyz
   end
   begin
      id 8
      name Head
      direction 0.000000 1.000000 0.000000
      length 4.527550
      axis 0.0 0.0 0.0 xyz
      dof rx ry rz
   end
   begin
      id 9
      name LeftShoulder
      direction 1.000000 0.000000 0.000000
      length 7.531907
      axis 0.0 0.0 -90.0 xyz
      dof rx ry rz
   end
   begin
      id 10
      name LeftArm
      direction 1.000000 0.000000 0.000000
      length 10.229199
      axis 0.0 0.0 -90.0 xyz
      dof rx ry rz
   end
   begin
      id 11
      name LeftForeArm
      direction 1.000000 0.000000 0.000000
      length 8.673495
      axis 0.0 0.0 -90.0 xyz
      dof ry rz rx
   end
   begin
      id 12
      name LeftHand
      direction 0.000000 0.000000 0.000000
      length 0.000000
      axis 0.0 0.0 -90.0 xyz
      dof rx ry rz
   end
   begin
      id 13
      name LeftHand_dum1
      direction 0.000000 0.000000 0.000000
      length 0.000000
      axis 0.0 0.0 -90.0 xyz
   end
   begin
      id 14
      name LeftHand_dum2
      direction 1.000000 0.000000 0.000000
      length 3.937000
      axis 0.0 0.0 -90.0 xyz
   end
   begin
      id 15
      name LeftHandThumb1
      direction 0.000000 0.000000 1.000000
      length 3.937000
      axis 0.0 0.0 -90.0 xyz
      dof rx rz ry
   end
   begin
      id 16
      name RightShoulder
      direction -1.000000 0.000000 0.000000
      length 7.531907
      axis 0.0 0.0 90.0 xyz
      dof rx ry rz
   end
   begin
      id 17
      name RightArm
      direction -1.000000 0.000000 0.000000
      length 10.229199
      axis 0.0 0.0 90.0 xyz
      dof rx ry rz
   end
   begin
      id 18
      name RightForeArm
      direction -1.000000 0.000000 0.000000
      length 8.673495
      axis 0.0 0.0 90.0 xyz
      dof ry rz rx
   end
   begin
      id 19
      name RightHand
      direction 0.000000 0.000000 0.000000
      length 0.000000
      axis 0.0 0.0 90.0 xyz
      dof rx ry rz
   end
   begin
      id 20
      name RightHand_dum1
      direction 0.000000 0.000000 0.000000
      length 0.000000
      axis 0.0 0.0 90.0 xyz
   end
   begin
      id 21
      name RightHand_dum2
      direction -1.000000 0.000000 0.000000
      length 3.937000
      axis 0.0 0.0 90.0 xyz
   end
   begin
      id 22
      name RightHandThumb1
      direction 0.000000 0.000000 1.000000
      length 3.937000
      axis 0.0 0.0 90.0 xyz
      dof rx rz ry
   end
   begin
      id 23
      name LeftUpLeg
      direction 0.000000 -1.000000 0.000000
      length 16.263388
      axis 0.0 0.0 0.0 xyz
      dof rx ry rz
   end
   begin
      id 24
      name LeftLeg
      direction 0.000000 -1.000000 0.000000
      length 14.328163
      axis 0.0 0.0 0.0 xyz
      dof rx ry rz
   end
   begin
      id 25
      name LeftFoot
      direction 0.000000 -0.258819 0.965926
      length 5.031290
      axis 15.0 0.0 0.0 xyz
      dof rx ry rz
   end
   begin
      id 26
      name LeftToeBase
      direction 0.000000 0.000000 1.000000
      length 2.952750
      axis 0.0 0.0 0.0 xyz
      dof rx ry rz
   end
   begin
      id 27
      name RightUpLeg
      direction 0.000000 -1.000000 0.000000
      length 16.263388
      axis 0.0 0.0 0.0 xyz
      dof rx ry rz
   end
   begin
      id 28
      name RightLeg
      direction 0.000000 -1.000000 0.000000
      length 14.328163
      axis 0.0 0.0 0.0 xyz
      dof rx ry rz
   end
   begin
      id 29
      name RightFoot
      direction 0.000000 -0.258819 0.965926
      length 5.031290
      axis 15.0 0.0 0.0 xyz
      dof rx ry rz
   end
   begin
      id 30
      name RightToeBase
      direction 0.000000 0.000000 1.000000
      length 2.952750
      axis 0.0 0.0 0.0 xyz
      dof rx ry rz
   end
:hierarchy
   begin
      root Spine_dum LeftUpLeg_dum RightUpLeg_dum
      Spine_dum Spine
      LeftUpLeg_dum LeftUpLeg
      RightUpLeg_dum RightUpLeg
      Spine Spine_dum1 Spine_dum2 Spine_dum3
      Spine_dum1 Head
      Spine_dum2 LeftShoulder
      Spine_dum3 RightShoulder
      LeftShoulder LeftArm
      LeftArm LeftForeArm
      LeftForeArm LeftHand
      LeftHand LeftHand_dum1 LeftHand_dum2
      LeftHand_dum1 LeftHandThumb1
      RightShoulder RightArm
      RightArm RightForeArm
      RightForeArm RightHand
      RightHand RightHand_dum1 RightHand_dum2
      RightHand_dum1 RightHandThumb1
      LeftUpLeg LeftLeg
      LeftLeg LeftFoot
      LeftFoot LeftToeBase
      RightUpLeg RightLeg
      RightLeg RightFoot
      RightFoot RightToeBase
   end

# File created by Blade
# Date/Time:  Tue Apr 07 21:25:57 2015
# Frame Rate: 120.000 fps
#------------------------------------------------------
:FULLY-SPECIFIED
:DEGREES
1
root -0.744798 32.896172 0.507848 3.271702 2.668976 -1.196077
Spine -6.781247 -6.113264 -0.445334
Head 16.084165 0.111766 -0.049103
LeftShoulder -22.993550 43.538834 18.616442
LeftArm 63.790069 -57.349590 -63.933059
LeftForeArm 10.419829 -0.000000 -4.047265
LeftHand 3.989256 -0.000000 7.974157
LeftHandThumb1 -26.253704 0.000000 33.147579
RightShoulder -9.228737 2.799893 -31.693928
RightArm 15.209504 12.177437 36.563704
RightForeArm -17.719506 -0.000000 -0.047210
RightHand 1.889147 -0.000000 -1.390286
RightHandThumb1 -24.326973 -0.000000 -32.862282
LeftUpLeg 4.447833 -5.074346 0.539278
LeftLeg -4.405876 -0.000000 0.000000
LeftFoot -5.019035 6.534594 -18.058369
LeftToeBase -10.056514 -0.000000 0.000000
RightUpLeg 4.840808 0.121710 4.390739
RightLeg -4.925081 -0.000000 0.000000
RightFoot -5.466452 -12.607998 8.851972
RightToeBase -3.780320 -0.000000 0.000000
2
root -0.743030 32.894982 0.507039 3.257154 2.679646 -1.171222
Spine -6.742543 -6.148265 -0.469672
Head 16.082274 0.136577 -0.028511
LeftShoulder -23.006429 43.570849 18.627915
LeftArm 63.763548 -57.373047 -63.932477
LeftForeArm 10.394635 -0.000000 -4.082221
LeftHand 3.976201 -0.000000 7.696776
LeftHandThumb1 -26.253704 0.000000 33.147579
RightShoulder -9.207120 2.835829 -31.678760
RightArm 15.215804 12.123883 36.504116
RightForeArm -17.718742 -0.000000 -0.061597
RightHand 1.860370 -0.000000 -1.340412
RightHandThumb1 -24.326973 -0.000000 -32.862282
LeftUpLeg 4.454491 -5.089302 0.512056
LeftLeg -4.390991 -0.000000 0.000000
LeftFoot -5.030475 6.526379 -18.072134
LeftToeBase -10.007553 -0.000000 0.000000
RightUpLeg 4.830859 0.152077 4.365243
RightLeg -4.862913 -0.000000 0.000000
RightFoot -5.562463 -12.630533 8.883993
RightToeBase -3.726102 -0.000000 0.000000
3
root -0.740736 32.894347 0.505980 3.231328 2.694767 -1.148038
Spine -6.685015 -6.139163 -0.501819
Head 16.081600 0.108973 0.006963
LeftShoulder -22.963600 43.560994 18.699591
LeftArm 63.644228 -57.338564 -63.812522
LeftForeArm 10.307407 0.000000 -4.138294
LeftHand 3.964619 -0.000000 7.655737
LeftHandThumb1 -26.253704 0.000000 33.147579
RightShoulder -9.241225 2.855254 -31.643692
RightArm 15.269193 12.048572 36.408861
RightForeArm -17.679989 -0.000000 -0.146581
RightHand 1.969212 0.000000 -1.214470
RightHandThumb1 -24.326973 -0.000000 -32.862282
LeftUpLeg 4.462651 -5.086388 0.484984
LeftLeg -4.352878 -0.000000 0.000000
LeftFoot -5.037306 6.477326 -18.085521
LeftToeBase -10.036303 -0.000000 0.000000
RightUpLeg 4.838954 0.194753 4.338211
RightLeg -4.813749 -0.000000 0.000000
RightFoot -5.640681 -12.657080 8.932062
RightToeBase -3.734302 -0.000000 0.000000
4
root -0.738267 32.893422 0.505004 3.204253 2.711467 -1.130172
Spine -6.632572 -6.130587 -0.521780
Head 16.122116 0.081847 0.011790
LeftShoulder -22.865436 43.525288 18.816815
LeftArm 63.636448 -57.393798 -63.905865
LeftForeArm 10.379643 -0.000000 -4.143726
LeftHand 3.847012 -0.000000 7.560687
LeftHandThumb1 -26.253704 0.000000 33.147579
RightShoulder -9.258725 2.855971 -31.629572
RightArm 15.303998 12.027656 36.335627
RightForeArm -17.678787 -0.000000 -0.187465
RightHand 1.934973 -0.000000 -1.144403
RightHandThumb1 -24.326973 -0.000000 -32.862282
LeftUpLeg 4.474698 -5.066131 0.464121
LeftLeg -4.332116 -0.000000 0.000000
LeftFoot -5.046994 6.464628 -18.099396
LeftToeBase -9.981602 -0.000000 0.000000
RightUpLeg 4.838099 0.208005 4.314899
RightLeg -4.742689 -0.000000 0.000000
RightFoot -5.741717 -12.643343 8.982718
RightToeBase -3.664177 -0.000000 0.000000
5
root -0.735770 32.892446 0.503715 3.184923 2.728510 -1.115255
Spine -6.585228 -6.143162 -0.535340
Head 16.151808 0.071012 0.037500
LeftShoulder -22.807645 43.504791 18.900792
LeftArm 63.471482 -57.356805 -63.752997
LeftForeArm 10.208199 -0.000000 -4.214680
LeftHand 3.758787 -0.000000 7.706823
LeftHandThumb1 -26.253704 0.000000 33.147579
RightShoulder -9.249016 2.879998 -31.617928
RightArm 15.318449 12.030784 36.253328
RightForeArm -17.730165 -0.000000 -0.240633
RightHand 1.885761 0.000000 -1.139272
RightHandThumb1 -24.326973 -0.000000 -32.862282
LeftUpLeg 4.479473 -5.052949 0.448556
LeftLeg -4.305671 -0.000000 0.000000
LeftFoot -5.054074 6.418044 -18.102234
LeftToeBase -9.925616 -0.000000 0.000000
RightUpLeg 4.834462 0.228888 4.293747
RightLeg -4.685557 -0.000000 0.000000
RightFoot -5.824943 -12.642359 9.030539
RightToeBase -3.661786 -0.000000 0.000000
